# xmcd
#
# Track frame offsets: 
#        150
#        17228
#        30204
#        47095
#        66013
#        84041
#        99389
#        115016
#        128632
#        146391
#        159194
#        178093
#        192372
#        204116
#        226272
#        247466
#        266598
#        284070
#        301409
#        316629
#
# Disc length: 4444 seconds
#
# Revision: 0
# Processed by: cddbd v1.4PL0 Copyright (c) Steve Scherf et al.
# Submitted via: ExactAudioCopy v0.95a3
#
DISCID=03115a14
DTITLE=Carpenters - Greatest Hits
DYEAR=2000
DGENRE=Ballad
TTITLE0=Superstar
TTITLE1=Please Mr. Postman
TTITLE2=Close to you
TTITLE3=Ticket to ride
TTITLE4=Yesterday one more
TTITLE5=Sing
TTITLE6=Rainy days and mondays
TTITLE7=Top of the world
TTITLE8=Goodbaye to love
TTITLE9=Hurting each other
TTITLE10=We've only just begun
TTITLE11=It's going to take some time
TTITLE12=For all we know
TTITLE13=This Masquerade
TTITLE14=Solitaire
TTITLE15=Those good old dreams
TTITLE16=Only yesterday
TTITLE17=I won't last a day without you
TTITLE18=Touch me when we're dancing
TTITLE19=Jambalaya
EXTD=
EXTT0=
EXTT1=
EXTT2=
EXTT3=
EXTT4=
EXTT5=
EXTT6=
EXTT7=
EXTT8=
EXTT9=
EXTT10=
EXTT11=
EXTT12=
EXTT13=
EXTT14=
EXTT15=
EXTT16=
EXTT17=
EXTT18=
EXTT19=
PLAYORDER=
